<?xml version="1.0" encoding="UTF-8"?>
<svg id="Layer_1" data-name="Layer 1" xmlns="http://www.w3.org/2000/svg" viewBox="0 0 210.13 210.75">
  <defs>
    <style>
      .cls-1 {
        fill: #343434;
      }

      .cls-2 {
        fill: #6c6c6c;
      }

      .cls-3 {
        fill: #585858;
      }

      .cls-4 {
        fill: #090909;
      }

      .cls-5 {
        fill: #727272;
      }

      .cls-6 {
        fill: #4c4c4c;
      }

      .cls-7 {
        fill: #d1d1d1;
      }

      .cls-8 {
        fill: #fafafa;
      }

      .cls-9 {
        fill: #cacaca;
      }

      .cls-10 {
        fill: #d8d8d8;
      }

      .cls-11 {
        fill: #0c0c0c;
      }

      .cls-12 {
        fill: #e2e2e2;
      }

      .cls-13 {
        fill: #040404;
      }

      .cls-14 {
        fill: #b2b2b2;
      }

      .cls-15 {
        fill: #a6a6a6;
      }

      .cls-16 {
        fill: #3e3e3e;
      }

      .cls-17 {
        fill: #959595;
      }

      .cls-18 {
        fill: #131313;
      }

      .cls-19 {
        fill: #868686;
      }

      .cls-20 {
        fill: #b4b4b4;
      }

      .cls-21 {
        fill: #0a0a0a;
      }

      .cls-22 {
        fill: #232323;
      }

      .cls-23 {
        fill: #cfcfcf;
      }

      .cls-24 {
        fill: #313131;
      }

      .cls-25 {
        fill: #e6e6e6;
      }

      .cls-26 {
        fill: #444;
      }

      .cls-27 {
        fill: #181818;
      }

      .cls-28 {
        fill: #3a3a3a;
      }

      .cls-29 {
        fill: #fdfdfd;
      }

      .cls-30 {
        fill: #737373;
      }

      .cls-31 {
        fill: #f9f9f9;
      }

      .cls-32 {
        fill: #b6b6b6;
      }

      .cls-33 {
        fill: #0e0e0e;
      }

      .cls-34 {
        fill: #202020;
      }

      .cls-35 {
        fill: #2e2e2e;
      }

      .cls-36 {
        fill: #dcdcdc;
      }

      .cls-37 {
        fill: #c1c1c1;
      }

      .cls-38 {
        fill: #9b9b9b;
      }

      .cls-39 {
        fill: #b1b1b1;
      }

      .cls-40 {
        fill: #292929;
      }

      .cls-41 {
        fill: #0b0b0b;
      }

      .cls-42 {
        fill: #bbb;
      }

      .cls-43 {
        fill: #191919;
      }

      .cls-44 {
        fill: #1f1f1f;
      }

      .cls-45 {
        fill: #1a1a1a;
      }

      .cls-46 {
        fill: #8a8a8a;
      }

      .cls-47 {
        fill: #d9d9d9;
      }

      .cls-48 {
        fill: #595959;
      }

      .cls-49 {
        fill: #404040;
      }

      .cls-50 {
        fill: #010101;
      }

      .cls-51 {
        fill: #fefefe;
      }

      .cls-52 {
        fill: #060606;
      }

      .cls-53 {
        fill: #e3e3e3;
      }

      .cls-54 {
        fill: #fcfcfc;
      }
    </style>
  </defs>
  <path d="m208.04,111.59c-1.15,20.99-8.25,39.7-20.99,56.47-8.97,11.81-20.03,21.09-32.91,28.06-10.81,5.85-22.35,9.74-34.78,11.26-6.77.83-13.46,1.4-20.23,1.23-10.38-.26-20.33-2.59-30.11-6.12-10.58-3.82-20.08-9.33-28.88-16.25-10.4-8.16-18.86-17.97-25.56-29.32-5.68-9.62-9.56-20.03-11.87-30.89-.79-3.71-2.03-7.56-1.64-11.52-.04-5.98-.32-11.97-.02-17.95-.27-5.55,1.14-10.92,2.42-16.17,3.31-13.63,9.07-26.26,17.62-37.46,9.06-11.87,19.88-21.73,33.06-28.99,9.26-5.11,19-8.64,29.28-10.95,4.35-.98,8.69-1.39,13.11-1.34,5.03-.86,10.06-1.34,15.1,0,12.7.04,24.58,3.57,35.97,8.8,24.87,11.42,42.69,29.61,53.13,55.1,4.3,10.49,6.57,21.25,7.3,32.45.53,4.53.53,9.07,0,13.6Z"/>
  <path class="cls-40" d="m1.05,96.56c.97,5.98,1.01,11.97.02,17.95-.08-.99-.17-1.99-.25-2.98-.45-4.49-.44-8.98,0-13.48.08-.5.16-1,.24-1.49Z"/>
  <path class="cls-47" d="m126.28,209.15c-5.19.37-9.7,2.28-14.57,1.33,2.27-.39,4.57-.7,6.82-.99,2.37-.3,4.75-1.56,7.75-.34Z"/>
  <path class="cls-1" d="m111.63,1.63c-5.03,0-10.06,0-15.1,0,.51-1,1.57-.45,2.31-.82,4.22-.25,8.45-.75,12.65.26.04.19.09.37.14.55Z"/>
  <path class="cls-7" d="m.82,98.05v13.48c-1.1-4.49-1.08-8.98,0-13.48Z"/>
  <path class="cls-44" d="m208.04,111.59c0-4.53,0-9.07,0-13.6,1.24,4.53,1.26,9.07,0,13.6Z"/>
  <path class="cls-25" d="m111.5,1.08c-4.22-.09-8.43-.17-12.65-.26,4.24-.87,8.46-1.4,12.65.26Z"/>
  <path class="cls-23" d="m149.42,200.62c2.09-1.06,4.18-2.12,6.27-3.17.14.28.28.55.42.83-2.13.98-4.01,2.46-6.69,2.35Z"/>
  <path class="cls-36" d="m209.87,91.27c-.32-2.44-1.78-4.8-.52-8.44-.16,3.52,1.35,5.82.52,8.44Z"/>
  <path class="cls-10" d="m180.27,178.57c1.5-1.12,3.01-2.24,4.23-3.14-.68,1.37-2.17,2.55-3.6,3.79-.21-.22-.42-.43-.63-.65Z"/>
  <path class="cls-53" d="m179.7,179.97c-1.33,2.08-2.42,3.1-3.91,3.73.58-1.52,1.59-2.61,3.91-3.73Z"/>
  <path class="cls-29" d="m91.44,84.56c9.44,1.17,18.38,3.51,25.31,10.67,1.6,1.65,2.28,3.72,3.18,5.71.32,2.55.4,5.1-.05,7.65l-.07-.05c-4.22.73-8.47.15-12.7.34-4.73,0-9.45,0-14.18,0-3.8,0-7.6,0-11.4,0-8.69-.18-17.38.36-26.06-.27-3.4-1.76-2.84-4.99-1.87-7.42,3.54-8.81,10.46-13.79,19.64-15.66,2-.41,3.97-1.3,6.1-.96,4.03-.54,8.06-.41,12.09,0Z"/>
  <path class="cls-51" d="m61.5,152.5c-5.28-.61-9.09-3.43-10.94-8.27-.99-2.58-.35-5.29,1.3-7.93,2.21-3.52,5.25-2.1,8.1-2.22,4.7.56,9.41.2,14.12.22,13.14.06,26.28.04,39.42.01,1.1,0,2.24.21,3.31-.26,4.75-1.67,6.54-.23,6.76,4.88.33,7.59-4.31,11.11-10.5,13.52-17.19.02-34.37.25-51.56.04Z"/>
  <path class="cls-29" d="m124.92,150.27c-1.68-.07-3.71.73-1.77-2.54,2.19-3.68,4.74-6.65,7.92-9.58,7.98-7.37,5.56-21.84-6.21-25.87-1.21-.41-2.38-.95-3.56-1.42.91-1.71.46-3.64.85-5.4.27-1.24,1.7-.65,2.58-.65,7.44-.05,14.89.02,22.33-.06.95,0,2.73.89,2.6-1.39-.21-.72.08-.97.79-.81,5.58,2.73,4.16,3.42,2.82,10.64-2.09,11.31-4.86,22.49-7.27,33.75-.38,1.75-1.48,2.42-2.98,2.82-6.02.73-12.08-.28-18.1.52Z"/>
  <path class="cls-54" d="m98.74,46.43c-12.05.76-22.63,5.16-32.18,12.51-12.95,9.98-19.81,23.39-22.87,39.09.32,4.75.32,9.51,0,14.26.82,5.75,2.3,11.34,4.51,16.7.71,1.73,1.13,3.33-.7,4.06-1.92.75-2.1-1.15-2.74-2.52-4.8-10.18-5.87-21.01-4.78-31.93,1.49-14.92,8.18-27.52,18.92-38.02,10.52-10.28,22.96-16.39,37.63-17.87,2.12-1.37,4.1,1.47,6.22.21,2.7-.85,5.42-.65,8.15-.18,13.08.83,24.64,5.54,34.86,13.65.57.45,1.13.94,1.74,1.34,1.24.81,3.12,1.84,1.87,3.26-.86.97-2.91,1.34-4.7-.32-8.88-8.27-19.86-12.05-31.56-14.15-.48-.09-.99-.03-1.49-.05-4.29-.59-8.58-.53-12.87-.04Z"/>
  <path class="cls-54" d="m107.84,165.46c17.34-1.12,32.05-8.02,43.53-20.99,6.97-7.88,11.32-17.18,13.42-27.77,2.81-14.2.38-27.17-6.52-39.59-.68-1.22-.48-2.29.75-2.77,1.36-.54,2.77-.31,3.37,1.31,1.29,3.51,3.06,6.81,4.22,10.4,2.36,7.25,3.76,14.63,3.21,22.22-.94,13.2-4.85,25.28-13.32,35.83-5.98,7.45-12.95,13.58-21.3,17.96-5.81,3.04-12.07,5.24-18.63,6.31-1.42.23-2.83.53-4.25.8-5.25.39-10.49.42-15.74-.02-9.47-1.35-18.27-4.63-26.58-9.26-1.09-.61-2.49-1.58-1.55-3.26.93-1.67,2.13-.92,3.42-.29,7.06,3.44,13.93,7.25,21.95,8.45,2.44.36,4.89.03,7.26.68,2.26.27,4.51.55,6.76,0Z"/>
  <path class="cls-29" d="m53.21,131.79c-3.22-5.33-2.8-9.6.49-13.67,2.71-3.36,5.35-1.6,8.04-.63,3.7,1.34,5.23,5,7.58,7.74.95,1.11,1.81,2.3,2.9,3.31,4,3.68,6.99,3.15,9.63-1.74.98-1.82,1.93-3.68,4.25-4.14,2.77-.51,5.54-.44,8.32-.03,2.11.53,4.19,1.24,6.33,1.54,4.66.67,8.65-.8,11.82-4.33,1.87-2.08,3.79-2.68,5.85-.25.59,1.19,1.25,2.31,2.78,2.43,1.93,4.51.58,7.51-4.38,9.74-.82.4-1.7.27-2.57.27-19.49,0-38.98,0-58.47,0-.86,0-1.74.12-2.57-.25Z"/>
  <path class="cls-29" d="m86.12,120.42c-2.94.9-4.83,2.77-6.15,5.61-1.61,3.45-3.74,3.67-6.39.82-2.24-2.41-4.21-5.07-6.31-7.61-2.85-3.46-6.66-5.03-11-5.5-.95-.1-2.27.29-2.49-.89-.09-.5,1.17-1.26,1.81-1.9,6.44-1.07,12.9-.56,19.36-.27,4.96.26,9.91.52,14.87.78,4.96-.67,9.95-.13,14.92-.31,3.53.16,7.09-.34,10.61.27,1.07.5,2.13,1.04,3.23,1.48.75.3,1.96.28,1.65,1.43-.23.86-1.31,1.13-2.19.95-2.89-.57-4.87.85-6.66,2.83-3.58,3.95-7.9,4.79-12.91,3.23-1.25-.39-2.68-.2-4.03-.28-2.66-1.65-5.49-1.02-8.31-.66Z"/>
  <path class="cls-29" d="m150.45,102.54c-.26.27-.52.54-.79.81-8.25-.18-8.29-.18-6.66-8.43,1.87-9.52,3.22-19.13,4.45-28.75.06-.47.01-1.27.25-1.37,2.68-1.16,5.17.75,7.87.62,1.45-.07.91,1.85.78,2.77-.9,6.24-1.88,12.46-2.95,18.67-.9,5.24-1.96,10.45-2.95,15.68Z"/>
  <path class="cls-29" d="m121.18,98.12c-2.55-4.32-5.68-7.88-10.52-9.95-1.93-.82-2.18-3.64-2.8-5.68-1.87-6.09-3.4-12.28-5.44-18.31-.66-1.95-.32-2.38,1.39-2.69.94-.17,1.84-.59,2.78-.75,2.1-.35,3.56.03,4.33,2.52,3.6,11.63,7.41,23.21,11.14,34.8-.27.28-.56.31-.87.06Z"/>
  <path class="cls-29" d="m133.04,65.59c-2.29,11.78-4.58,23.55-7.01,36.02-3.86-8.88-6.94-17.17-3.14-26.25.45-1.08.51-2.1.69-3.18,1.12-6.87,2.31-7.66,9.46-6.6Z"/>
  <path class="cls-29" d="m45.15,57.25c-.94,4.56-4.12,7.77-6.55,11.38-.62.92-1.39.07-2.14-.47-3.93-2.81-7.94-5.51-11.93-8.22-1.29-.88-1.44-1.6-.32-2.92,1.64-1.94,2.89-4.22,4.41-6.27,2.33-3.15,7.19-2.85,8.88.73.76,1.62,1.8.99,2.68.95,3.51-.18,4.26,2.23,4.97,4.81Z"/>
  <path class="cls-29" d="m186.33,61.62c.51,2.95-.82,4.23-3.64,4.33-.97.03-1.98-.38-2.45,1.38-.97,3.7-4.85,4.66-7.81,2.33-3.1-2.44-4.37-6.18-6.77-9.12-.85-1.04.24-1.68.92-2,4.15-2.01,7.72-4.93,11.62-7.33,2.03-1.26,3.34-.93,4.36,1.21,1.44,3.03,4.47,5.39,3.77,9.21Z"/>
  <path class="cls-51" d="m98,30.78c-1.43,0-2.86,0-4.29,0-1.26-3.67.27-7.55-.81-11.23-.01-.99-.15-2,0-2.97.19-1.23-.84-3.23.7-3.55,1.87-.39,4.1-.79,5.73,1.38,2.17,2.88,4.63,5.54,7.32,8.71,1.02-3.09-1-5.43-.38-7.93.35-1.4-.59-3.12,2.2-3.15,2.57-.03,2.3,1.24,2.38,2.93.12,2.55.53,5.08.81,7.62.35,2.5.54,4.99-.12,7.47-4.2,1.75-6.33-.88-8.31-3.88-1.33-2.01-3.55-3.33-4.45-5.68-1.95-.24-1.08,1.37-.99,1.91.35,2.09.09,4.22.59,6.28.04.73.34,1.51-.38,2.11Z"/>
  <path class="cls-51" d="m180.78,119.82c-1.63-3.98.87-5.75,3.56-7.36.94-.56,2.24-.81,1.96-2.27-.34-1.73-1.8-.82-2.71-.86-1.67-.08-2.57-.61-2.51-2.4.05-1.87,1.2-2.03,2.73-2.18,4.96-.51,9.8,1.06,14.74.73,1.38-.09,1.19.85,1.25,1.72.26,3.69-.27,7.26-1.5,10.75-.75,2.13-2.44,3.05-4.45,3.21-1.99.16-4.28.58-5.49-1.76-1.31-2.54-2.66-3.87-5.02-.91-.53.67-1.65.88-2.56,1.33Z"/>
  <path class="cls-29" d="m196.79,86.8c.04,5.51-3.4,8.71-8.91,9.1-6.13.43-9.29-5.79-9.72-11.45-.36-4.65,4.46-8.91,9.65-8.83,4.8.08,9.86,3.61,8.98,11.18Z"/>
  <path class="cls-29" d="m138.77,19.53c2.5-.73,4.92,1.29,7.53,2.44,1.11.49,1.82,1.56.78,3.06-.86,1.24-1.49,1.66-2.93.82-1.54-.89-3.34-1.34-4.93-2.18-.77-.41-1.53-.62-1.97,0-.74,1.06.46,1.54,1.05,1.99.94.72,2.04,1.24,3.09,1.82,4,2.2,5.26,4.36,4.11,7.11-1.18,2.84-5.4,4.76-8.65,3.51-2.54-.97-4.91-2.45-7.24-3.89-1.07-.66-1.61-1.88-.71-3.12.84-1.17,1.77-1.37,3.14-.48,1.86,1.19,3.89,2.14,5.93,3.01.83.35,2.11.78,2.67-.31.63-1.22-.55-1.61-1.44-2.07-1.6-.82-3.13-1.75-4.49-2.99-2.01-1.83-2.87-3.8-1.89-6.54,1.02-2.82,3.3-1.96,5.97-2.19Z"/>
  <path class="cls-29" d="m76.01,24.1c.66-.24,1.43-.61,2.24-.8,1.6-.37,2.05.81,2.52,1.97.65,1.63-.23,1.92-1.57,1.87-.11,0-.29.05-.34.14-.77,1.27-3.97.63-2.96,2.87.73,1.62,2.74.56,4.21-.04,1.1-.45,2.36-.54,3.45-1.02,1.24-.54,2.46-1.24,2.59.87.07,1.12,1.38,2.64-1.25,3.21-3.13.67-6.09,2.1-9.11,3.26-1.57.6-2.57.83-3.25-1.36-1.44-4.59-3.3-9.04-4.95-13.56-.46-1.25-.07-2.36,1.26-2.58,3.13-.54,5.89-2.08,8.88-2.94,1.38-.39,3.17-.69,3.83,1.16.62,1.74-.36,2.56-2.15,2.89-1.39.26-2.7.99-3.99,1.62-.74.36-2.29-.17-1.95,1.52.3,1.52,1.53.76,2.56.93Z"/>
  <path class="cls-29" d="m147.24,43.16c5.26-3.13,10.26-6.19,15.35-9.09,2.17-1.24,3.19,1.05,4.74,1.84,1.54.79,1.04,1.54.61,2.65-1.91,4.95-3.75,9.92-5.57,14.91-.27.73-.33,1.56-1.39.97-1.46-.82-3.27-1.37-3.03-3.63.25-2.32-2.81-6.23-4.74-5.49-2.92,1.12-3.93-1.18-5.97-2.15Z"/>
  <path class="cls-54" d="m126.2,139.28c-.21-.4-.33-.61-.42-.83-1.74-4.48-3.38-8.88-1.67-13.88.54-1.57-.62-3.5-1.8-4.99-.63-.8-2.81-1.64-1.26-2.59,1.4-.86,2.23-3.66,5.21-1.88,3.59,2.14,6.18,4.92,6.85,8.8,1.11,6.32-.51,11.86-6.92,15.38Z"/>
  <path class="cls-29" d="m63.03,38.25c-.05,4.61-2.99,8.35-7.14,9.64-3.62,1.13-7.82-.68-10.68-4.65-1.07-1.48-2-3.05-3.12-4.49-.83-1.07-2.59-1.67-.18-3.18,1.91-1.2,2.78-1.43,3.99.78,1.1,2.01,2.98,3.58,4.28,5.5,1.91,2.82,4.19,1.89,6.36.73,2.3-1.23,3.27-3.3,1.85-5.7-1.42-2.39-2.98-4.76-4.89-6.76-1.98-2.07-.03-2.76.91-3.78,1.35-1.46,1.91-.41,2.67.82,1.02,1.65,2.43,3.05,3.55,4.64,1.48,2.09,3.32,4.11,2.39,6.45Z"/>
  <path class="cls-51" d="m21.08,110.04c0,1.24.06,2.49,0,3.73-.05,1.11.35,1.51,1.49,1.51,1.12,0,1.55-.35,1.53-1.48-.04-2.11.15-4.24-.02-6.33-.15-1.8.64-2.08,2.14-1.97,1.26.09,2.46-.17,2.4,1.82-.11,3.6-.05,7.21.04,10.81.04,1.36-.67,1.34-1.72,1.69-3.4,1.15-6.87.39-10.28.72-.68.43-1.46.2-2.18.32-2.8.46-3.96-.65-3.48-3.46.08-.49-.04-.99-.29-1.43-.23-1.72-.45-3.44-.68-5.16q.48-4.39,4.22-3.72c.04,2.48.09,4.97.13,7.45.01.76-.02,1.52,1.1,1.47.98-.05,2.13.16,1.81-1.47-.66-5.08-.56-5.2,3.79-4.49Z"/>
  <path class="cls-29" d="m131.3,102.54c-2.72.66-3.39-.14-2.6-3.3,1.55-6.16,2.71-12.44,3.66-18.72.4-2.66,1.65-3.2,3.66-2.37,1.53.64,4.91-.67,3.46,3.71-1.92,5.8-2.41,12.02-3.63,18.03-.66,3.27-2.35,2.61-4.55,2.65Z"/>
  <path class="cls-29" d="m124.94,60.08c-1.87,6.91-3.74,13.82-5.62,20.79-1.95-1.68-1.83-4.48-2.59-6.83-1.08-3.4-3.18-6.51-2.98-10.32.08-1.52.36-2.84,1.51-3.88,3.23-.27,6.47-.69,9.67.24Z"/>
  <path class="cls-29" d="m31.1,86.39c-.67,3.64-1.14,6.49-1.74,9.31-.37,1.73-1.45,2.76-3.36,2.42-4.62-.83-9.24-1.68-13.85-2.58-1.57-.31-1.9-1.59-1.43-2.8.39-1,.52-2.11,2.69-1.69,3.05.59,5.96,1.89,9.22,1.91,2.47.02,3.03-1.08,3.59-2.89.37-1.18-.09-2.43.58-3.61.61-1.07-.14-3.24,2.41-2.48,1.76.52,2.51,1.41,1.89,2.43Z"/>
  <path class="cls-8" d="m144.9,69.21c-1.12,7.89-2.22,15.79-3.38,23.67-.42,2.85-1.09,5.67-1.5,8.53-.14.99-.52,1.25-1.4,1.19-.87-.06-.82-.68-.91-1.3-.27-2.06,1.01-3.74,1.35-5.62,1.01-5.58,1.67-11.22,3.12-16.72.41-1.56.06-2.95-2.22-2.58-3.04.49-3.28-1.53-2.95-3.7.68-4.37.74-4.36,7.88-3.48Z"/>
  <path class="cls-54" d="m98.56,82.94c-2.42.86-4.68-.78-7.15-.66-1.78.09-1.46-2.05-1.99-3.14-.72-1.47-.47-3.28-.87-4.96-.76-3.22,2.71-1.93,4.14-2.84,1.32-.84,2.77-.06,3.23,1.86.79,3.26,1.74,6.48,2.64,9.75Z"/>
  <path class="cls-31" d="m102.35,73.45c.98.09.92.71,1.09,1.31.68,2.42,1.42,4.82,2.22,7.2.38,1.12,1.51,2.6.07,3.19-1.35.55-3.52-.14-4.16-1.39-1.25-2.42-2.2-5.14-2.55-7.83-.25-1.91,2.55-1.26,3.35-2.49Z"/>
  <path class="cls-6" d="m53.21,131.79c21.2,0,42.41-.01,63.61-.02-2.44,1.42-5.09.57-7.63.59-16.99.1-33.98.11-50.96.07-1.66,0-3.48.55-5.02-.64Z"/>
  <path class="cls-7" d="m116.81,134.05c-3.92.64-7.8,1.36-11.85.78-2.81-.4-5.71-.14-8.57-.14-10.83-.01-21.65,0-32.48-.03-1.32,0-2.75.43-3.95-.58,18.95,0,37.9-.02,56.84-.02Z"/>
  <path class="cls-23" d="m61.5,152.5c.78-.89,1.84-.62,2.8-.62,15.45-.02,30.89-.02,46.34-.02.84,0,1.77-.23,2.42.59-.5.1-1,.19-1.51.29-4.73.38-9.47.39-14.2,0-1.49,0-2.99,0-4.48.01-5.48.36-10.97.38-16.45-.01-.25,0-.5,0-.74-.01-4.75.42-9.5.37-14.25.04l.08-.26Z"/>
  <path class="cls-35" d="m55.48,108.61c8.71.01,17.43.03,26.14.04.25.08.35.19.29.32-.06.15-.13.22-.2.22-7.94.02-15.88.05-23.82.07-.86,0-1.76.12-2.41-.65Z"/>
  <path class="cls-24" d="m74.94,110.68c-6.45.09-12.9.18-19.36.27.25-.26.49-.75.74-.75,6.21-.09,12.44-.8,18.62.48Z"/>
  <path class="cls-2" d="m124.92,150.27c6-1.36,12.06-.44,18.1-.52-6,1.37-12.07.34-18.1.52Z"/>
  <path class="cls-45" d="m76.42,152.74h16.45c-5.48.98-10.97,1.04-16.45,0Z"/>
  <path class="cls-24" d="m96.59,169.15c5.25,0,10.49.01,15.74.02-5.25,1.03-10.49,1.06-15.74-.02Z"/>
  <path class="cls-15" d="m104.88,111.42c-5.02.01-10.05.03-15.07.04,4.94-1.49,9.98-.38,14.98-.59.25.08.35.19.29.33-.06.15-.13.22-.2.22Z"/>
  <path class="cls-27" d="m97.35,152.73c4.73,0,9.47,0,14.2,0-4.74,1.04-9.47,1.01-14.2,0Z"/>
  <path class="cls-12" d="m110.89,42.74c-2.72.63-5.93-1.34-8.22,1.57-.49-1.02-3.42.55-2.3-2.17,3.51.17,7.08-.88,10.51.6Z"/>
  <path class="cls-43" d="m61.43,152.76c4.75-.01,9.5-.02,14.25-.04-4.75,1.07-9.5,1-14.25.04Z"/>
  <path class="cls-16" d="m43.69,112.3c0-4.75,0-9.51,0-14.26.97,4.76.9,9.51,0,14.26Z"/>
  <path class="cls-46" d="m92.81,108.69c4.73-.02,9.46-.04,14.2-.06.26.07.36.16.31.3-.06.15-.13.22-.2.22-4.74.02-9.47.04-14.21.05-.03-.17-.06-.34-.09-.51Z"/>
  <path class="cls-26" d="m98.74,46.43c4.29-1.17,8.58-1.17,12.87.04-4.29-.01-8.58-.03-12.87-.04Z"/>
  <path class="cls-42" d="m107.11,109.15c-.03-.17-.07-.34-.11-.52,4.27-.03,8.54-.06,12.8-.09-4.16,1.69-8.47.29-12.7.61Z"/>
  <path class="cls-14" d="m91.44,84.56c-4.03,0-8.06,0-12.09,0,4.03-.96,8.06-1.45,12.09,0Z"/>
  <path class="cls-22" d="m92.9,19.54c1.56,3.65.26,7.51.81,11.23-1.82-3.63-.45-7.49-.81-11.23Z"/>
  <path class="cls-48" d="m92.81,108.69c.02.17.05.34.09.51-3.73,0-7.46,0-11.19-.01-.04-.18-.07-.36-.09-.54,3.73.01,7.46.03,11.19.04Z"/>
  <path class="cls-38" d="m10.71,115.96c.16,3.9,2.24,5.29,5.96,4.57-5.83,1.73-6.28,1.38-5.96-4.57Z"/>
  <path class="cls-30" d="m104.88,111.42c-.02-.18-.05-.37-.09-.55,3.53.05,7.1-.74,10.56.56-3.49,0-6.98,0-10.47,0Z"/>
  <path class="cls-39" d="m86.12,120.42c2.85-.82,5.72-1.79,8.31.66-2.72-.89-5.53-.49-8.31-.66Z"/>
  <path class="cls-17" d="m121.2,122.03c-.96-.11-1.16,1.92-2.34.93-1.07-.9-.63-2.2-.44-3.37,1.63,0,2.5.89,2.78,2.43Z"/>
  <path class="cls-49" d="m124.94,60.08c-3.22-.08-6.45-.16-9.67-.24,3.24-.58,6.49-1.64,9.67.24Z"/>
  <path class="cls-37" d="m97.98,28.62c-1.17-2.58-.6-5.31-.59-7.97,0-1.01.8-1.1,1.39-.16-1.38.71-.53,1.88-.59,2.86.3,1.77.68,3.55-.21,5.28Z"/>
  <path class="cls-7" d="m121.18,98.12c.29-.02.58-.04.87-.06,1.12,1.31,1.87,2.7,1.23,4.83-1.79-1.4-1.38-3.34-2.1-4.78Z"/>
  <path class="cls-3" d="m21.08,110.04c-4.48-1.21-3.59,2.09-3.79,4.49-.81-1.61-1.35-3.52-.08-4.83.89-.92,2.69-1.08,3.87.34Z"/>
  <path class="cls-5" d="m94.42,122.63c-2.77.01-5.54.02-8.32.03,2.77-1.14,5.54-1.16,8.32-.03Z"/>
  <path class="cls-20" d="m14.25,107.08c-3.53-1.16-3.42,1.79-4.22,3.72-.34-5.1.15-5.53,4.22-3.72Z"/>
  <path class="cls-32" d="m100.37,42.13c-.33,1.88,2.03.92,2.3,2.17-2.55,1.4-3.71-2.56-6.15-1.6,1.15-1.11,2.53-.67,3.85-.58Z"/>
  <path class="cls-28" d="m111.55,30.05c.04-2.49.08-4.98.12-7.47,1.06,2.47.7,5.02.45,7.56,0,.05-.19.13-.26.11-.11-.03-.2-.13-.3-.2Z"/>
  <path class="cls-34" d="m97.98,28.62c.07-1.76.14-3.52.21-5.28.89,2.5,1.29,5-.19,7.44l-.02-2.16Z"/>
  <path class="cls-19" d="m119.88,108.59c.02-2.55.03-5.1.05-7.65,1.02,2.56,1.06,5.1-.05,7.65Z"/>
  <path class="cls-9" d="m107.84,165.46c-2.25,1.64-4.51.54-6.76,0,2.25,0,4.51,0,6.76,0Z"/>
  <path class="cls-13" d="m76.81,91.35c.8.38,2.7-.93,2.6,1.28-.07,1.56-1.38,1.83-2.76,1.75-1.38-.07-3.1-.31-3.05-1.8.05-1.47,1.83-1.23,3.2-1.24Z"/>
  <path class="cls-4" d="m110.58,101.1c-1.67-.09-3.42-.2-3.34-1.77.07-1.4,1.83-1.25,3.06-1.28,1.23-.04,3.04.32,3.02,1.18-.03,1.32-1.46,2.14-2.73,1.88Z"/>
  <path class="cls-4" d="m89.91,98.08c-2.16.07-3.58-.02-3.67-1.34-.11-1.7,1.44-1.69,2.7-1.67,1.22.01,3-.22,3,1.31,0,1.27-1.71,1.67-2.04,1.7Z"/>
  <path class="cls-21" d="m69.75,99.39c-2.01,1.15-3.52,2.55-5.52,1.07-.63-.47-.93-1.68-.43-1.92,1.92-.91,3.89-.71,5.95.85Z"/>
  <path class="cls-52" d="m100.7,94.31c-.79-.37-2.72.89-2.62-1.13.09-1.77,1.9-.94,2.98-1.08,1.07-.13,2.71-.26,2.69,1-.02,1.44-1.67,1.32-3.05,1.21Z"/>
  <path class="cls-21" d="m41.15,57.43c-2.4,1.61-1.63,6.74-6.96,3.94,2.37-1.52,2.32-5.39,6.96-3.94Z"/>
  <path class="cls-33" d="m33.87,54.8c-.38,1.52-1.14,3.02-2.8,3.69-.72.29-1.55-.53-1.38-1.25.41-1.85,1.6-3.3,3.39-3.93.77-.28.69.74.8,1.49Z"/>
  <path class="cls-11" d="m176.67,64.08c-.12.92.21,1.79-.96,1.9-1.06.09-4.44-3.38-4.31-4.54.13-1.13,1.46-1.34,1.94-1.3,2.46.19,2.57,2.48,3.33,3.94Z"/>
  <path class="cls-41" d="m179.63,56.03c.97,1.55,2.13,2.95,2.75,4.57.4,1.04-.98.99-1.53.82-1.86-.57-2.7-2.3-3.37-3.87-.29-.68,1.31-.78,2.15-1.51Z"/>
  <path class="cls-50" d="m190.79,113.33c.11-1.68-.71-3.61,2.13-3.37,1.52.13,2.54.08,2.42,2.12-.13,2.25-.65,4.42-3.06,4.51-2.16.08-1.23-2.19-1.48-3.26Z"/>
  <path class="cls-50" d="m192.37,86.12c.02,3.36-1.66,5.18-4.82,5.21-2.43.03-4.9-3.07-4.96-6.22-.07-3.25,1.22-4.3,5.24-4.3,3.95,0,4.52.67,4.55,5.31Z"/>
  <path class="cls-18" d="m162.38,39.3c-.04,2.4-.25,4.25-2.11,4.82-1.6.49-2.29-1.89-.82-2.88.78-.52,1.56-1.03,2.93-1.94Z"/>
</svg>